# xmcd
#
# Track frame offsets: 
#        150
#        11990
#        22687
#        37255
#        45404
#        55761
#        67778
#        81942
#        96430
#        104838
#        120986
#        131247
#        139798
#
# Disc length: 1981 seconds
#
# Revision: 0
# Processed by: cddbd v1.5.2PL0 Copyright (c) Steve Scherf et al.
# Submitted via: ExactAudioCopy v1.2
#
DISCID=b007bb0d
DTITLE=John Denver - John Denver Sings
DYEAR=1966
DGENRE=Country
TTITLE0=Here, There and Everywhere
TTITLE1=Ann
TTITLE2=Babe, I Hate To Go
TTITLE3=When I Was A Cowboy
TTITLE4=Yesterday
TTITLE5=Blues My Naughty Baby Taught Me
TTITLE6=What's That I Hear Now?
TTITLE7=And I Love Her
TTITLE8=When Will I Be Loved?
TTITLE9=Darcy Farrow
TTITLE10=Minor Swing
TTITLE11=In My Life
TTITLE12=Farewell Party
EXTD=
EXTT0=
EXTT1=
EXTT2=
EXTT3=
EXTT4=
EXTT5=
EXTT6=
EXTT7=
EXTT8=
EXTT9=
EXTT10=
EXTT11=
EXTT12=
PLAYORDER=
